<svg width="115" height="38" viewBox="0 0 115 38" fill="none" xmlns="http://www.w3.org/2000/svg">
<rect x="24" y="19" width="91" height="19" rx="4" fill="white" fill-opacity="0.5"/>
<path d="M36.396 32.652C36.156 32.836 35.852 32.964 35.484 33.036C35.116 33.108 34.724 33.144 34.308 33.144C33.804 33.144 33.332 33.06 32.892 32.892C32.452 32.716 32.068 32.452 31.74 32.1C31.412 31.748 31.152 31.3 30.96 30.756C30.768 30.204 30.672 29.552 30.672 28.8C30.672 28.016 30.776 27.352 30.984 26.808C31.2 26.256 31.48 25.808 31.824 25.464C32.176 25.112 32.568 24.856 33 24.696C33.432 24.536 33.872 24.456 34.32 24.456C34.8 24.456 35.192 24.484 35.496 24.54C35.8 24.588 36.06 24.656 36.276 24.744L36.036 25.62C35.652 25.436 35.104 25.344 34.392 25.344C34.064 25.344 33.74 25.404 33.42 25.524C33.1 25.644 32.812 25.84 32.556 26.112C32.308 26.384 32.108 26.74 31.956 27.18C31.804 27.62 31.728 28.16 31.728 28.8C31.728 29.376 31.8 29.88 31.944 30.312C32.088 30.744 32.284 31.104 32.532 31.392C32.788 31.68 33.084 31.896 33.42 32.04C33.764 32.184 34.136 32.256 34.536 32.256C34.896 32.256 35.208 32.22 35.472 32.148C35.744 32.076 35.972 31.984 36.156 31.872L36.396 32.652ZM38.8475 31.524C38.8475 31.804 38.8955 32.004 38.9915 32.124C39.0875 32.244 39.2235 32.304 39.3995 32.304C39.5035 32.304 39.6155 32.296 39.7355 32.28C39.8555 32.264 39.9915 32.228 40.1435 32.172L40.2515 32.928C40.1235 32.992 39.9435 33.044 39.7115 33.084C39.4875 33.124 39.2915 33.144 39.1235 33.144C38.7635 33.144 38.4675 33.044 38.2355 32.844C38.0035 32.636 37.8875 32.288 37.8875 31.8V24.6H38.8475V31.524ZM41.4874 27H42.4474V33H41.4874V27ZM41.2834 25.176C41.2834 24.992 41.3434 24.836 41.4634 24.708C41.5914 24.572 41.7514 24.504 41.9434 24.504C42.1354 24.504 42.2994 24.572 42.4354 24.708C42.5714 24.836 42.6394 24.992 42.6394 25.176C42.6394 25.36 42.5714 25.512 42.4354 25.632C42.2994 25.752 42.1354 25.812 41.9434 25.812C41.7514 25.812 41.5914 25.752 41.4634 25.632C41.3434 25.512 41.2834 25.36 41.2834 25.176ZM48.5863 32.604C48.3463 32.78 48.0623 32.912 47.7343 33C47.4063 33.096 47.0623 33.144 46.7023 33.144C46.2383 33.144 45.8463 33.072 45.5263 32.928C45.2063 32.776 44.9423 32.564 44.7343 32.292C44.5343 32.012 44.3863 31.68 44.2903 31.296C44.2023 30.904 44.1583 30.472 44.1583 30C44.1583 28.984 44.3823 28.208 44.8303 27.672C45.2783 27.128 45.9223 26.856 46.7623 26.856C47.1463 26.856 47.4703 26.888 47.7343 26.952C48.0063 27.008 48.2503 27.092 48.4663 27.204L48.1903 28.032C48.0063 27.928 47.8023 27.848 47.5783 27.792C47.3543 27.728 47.1143 27.696 46.8583 27.696C45.7223 27.696 45.1543 28.464 45.1543 30C45.1543 30.304 45.1823 30.596 45.2383 30.876C45.3023 31.148 45.4023 31.392 45.5383 31.608C45.6823 31.816 45.8663 31.984 46.0903 32.112C46.3223 32.24 46.6063 32.304 46.9423 32.304C47.2303 32.304 47.4863 32.26 47.7103 32.172C47.9423 32.084 48.1303 31.984 48.2743 31.872L48.5863 32.604ZM51.4204 30.3H50.8684V33H49.9084V24.6H50.8684V29.712L51.3604 29.544L53.2204 27H54.3364L52.5004 29.412L52.0084 29.808L52.6084 30.288L54.6124 33H53.4244L51.4204 30.3ZM57.6945 27H58.6305V25.812L59.5905 25.536V27H61.2225V27.84H59.5905V31.164C59.5905 31.58 59.6425 31.876 59.7465 32.052C59.8505 32.22 60.0265 32.304 60.2745 32.304C60.4825 32.304 60.6585 32.284 60.8025 32.244C60.9465 32.196 61.1065 32.136 61.2825 32.064L61.4985 32.796C61.2825 32.9 61.0465 32.984 60.7905 33.048C60.5345 33.112 60.2585 33.144 59.9625 33.144C59.4745 33.144 59.1305 33.008 58.9305 32.736C58.7305 32.456 58.6305 31.992 58.6305 31.344V27.84H57.6945V27ZM62.088 30C62.088 28.984 62.312 28.208 62.76 27.672C63.216 27.128 63.868 26.856 64.716 26.856C65.164 26.856 65.552 26.932 65.88 27.084C66.216 27.228 66.492 27.44 66.708 27.72C66.924 27.992 67.084 28.324 67.188 28.716C67.292 29.1 67.344 29.528 67.344 30C67.344 31.016 67.116 31.796 66.66 32.34C66.212 32.876 65.564 33.144 64.716 33.144C64.268 33.144 63.876 33.072 63.54 32.928C63.212 32.776 62.94 32.564 62.724 32.292C62.508 32.012 62.348 31.68 62.244 31.296C62.14 30.904 62.088 30.472 62.088 30ZM63.084 30C63.084 30.304 63.112 30.596 63.168 30.876C63.232 31.156 63.328 31.4 63.456 31.608C63.584 31.816 63.752 31.984 63.96 32.112C64.168 32.24 64.42 32.304 64.716 32.304C65.804 32.312 66.348 31.544 66.348 30C66.348 29.688 66.316 29.392 66.252 29.112C66.196 28.832 66.104 28.588 65.976 28.38C65.848 28.172 65.68 28.008 65.472 27.888C65.264 27.76 65.012 27.696 64.716 27.696C63.628 27.688 63.084 28.456 63.084 30ZM76.4368 32.52C76.1968 32.712 75.8928 32.864 75.5248 32.976C75.1648 33.088 74.7808 33.144 74.3728 33.144C73.9168 33.144 73.5208 33.072 73.1848 32.928C72.8488 32.776 72.5728 32.564 72.3568 32.292C72.1408 32.012 71.9808 31.68 71.8768 31.296C71.7728 30.912 71.7208 30.48 71.7208 30C71.7208 28.976 71.9488 28.196 72.4048 27.66C72.8608 27.124 73.5128 26.856 74.3608 26.856C74.6328 26.856 74.9048 26.888 75.1768 26.952C75.4488 27.008 75.6928 27.12 75.9088 27.288C76.1248 27.456 76.3008 27.696 76.4368 28.008C76.5728 28.312 76.6408 28.716 76.6408 29.22C76.6408 29.484 76.6168 29.776 76.5688 30.096H72.7168C72.7168 30.448 72.7528 30.76 72.8248 31.032C72.8968 31.304 73.0088 31.536 73.1608 31.728C73.3128 31.912 73.5088 32.056 73.7488 32.16C73.9968 32.256 74.2968 32.304 74.6488 32.304C74.9208 32.304 75.1928 32.256 75.4648 32.16C75.7368 32.064 75.9408 31.952 76.0768 31.824L76.4368 32.52ZM74.3728 27.696C73.9008 27.696 73.5208 27.82 73.2328 28.068C72.9528 28.316 72.7848 28.74 72.7288 29.34H75.7048C75.7048 28.732 75.5888 28.308 75.3568 28.068C75.1248 27.82 74.7968 27.696 74.3728 27.696ZM82.0026 33V29.58C82.0026 28.956 81.9106 28.488 81.7266 28.176C81.5506 27.856 81.2226 27.696 80.7426 27.696C80.3186 27.696 79.9666 27.812 79.6866 28.044C79.4146 28.268 79.2226 28.552 79.1106 28.896V33H78.1506V27H78.8226L79.0026 27.732H79.0506C79.2426 27.476 79.4986 27.268 79.8186 27.108C80.1466 26.94 80.5346 26.856 80.9826 26.856C81.3106 26.856 81.5986 26.896 81.8466 26.976C82.0946 27.048 82.2986 27.18 82.4586 27.372C82.6266 27.564 82.7506 27.824 82.8306 28.152C82.9186 28.472 82.9626 28.88 82.9626 29.376V33H82.0026ZM85.7811 31.524C85.7811 31.804 85.8291 32.004 85.9251 32.124C86.0211 32.244 86.1571 32.304 86.3331 32.304C86.4371 32.304 86.5491 32.296 86.6691 32.28C86.7891 32.264 86.9251 32.228 87.0771 32.172L87.1851 32.928C87.0571 32.992 86.8771 33.044 86.6451 33.084C86.4211 33.124 86.2251 33.144 86.0571 33.144C85.6971 33.144 85.4011 33.044 85.1691 32.844C84.9371 32.636 84.8211 32.288 84.8211 31.8V24.6H85.7811V31.524ZM88.121 27.444C88.425 27.26 88.777 27.124 89.177 27.036C89.585 26.948 90.009 26.904 90.449 26.904C90.865 26.904 91.197 26.96 91.445 27.072C91.701 27.184 91.893 27.332 92.021 27.516C92.157 27.692 92.245 27.888 92.285 28.104C92.333 28.32 92.357 28.536 92.357 28.752C92.357 29.232 92.345 29.7 92.321 30.156C92.297 30.612 92.285 31.044 92.285 31.452C92.285 31.748 92.297 32.028 92.321 32.292C92.345 32.556 92.389 32.8 92.453 33.024H91.745L91.493 32.184H91.433C91.361 32.296 91.269 32.408 91.157 32.52C91.053 32.624 90.925 32.72 90.773 32.808C90.621 32.888 90.445 32.956 90.245 33.012C90.045 33.068 89.817 33.096 89.561 33.096C89.305 33.096 89.065 33.056 88.841 32.976C88.625 32.896 88.437 32.784 88.277 32.64C88.117 32.488 87.989 32.308 87.893 32.1C87.805 31.892 87.761 31.656 87.761 31.392C87.761 31.04 87.833 30.748 87.977 30.516C88.121 30.276 88.321 30.088 88.577 29.952C88.841 29.808 89.153 29.708 89.513 29.652C89.881 29.588 90.285 29.556 90.725 29.556C90.837 29.556 90.945 29.556 91.049 29.556C91.161 29.556 91.273 29.564 91.385 29.58C91.409 29.34 91.421 29.124 91.421 28.932C91.421 28.492 91.333 28.184 91.157 28.008C90.981 27.832 90.661 27.744 90.197 27.744C90.061 27.744 89.913 27.756 89.753 27.78C89.601 27.796 89.441 27.824 89.273 27.864C89.113 27.896 88.957 27.94 88.805 27.996C88.661 28.044 88.533 28.1 88.421 28.164L88.121 27.444ZM89.825 32.256C90.049 32.256 90.249 32.228 90.425 32.172C90.601 32.108 90.753 32.032 90.881 31.944C91.009 31.848 91.113 31.744 91.193 31.632C91.281 31.52 91.345 31.412 91.385 31.308V30.312C91.273 30.304 91.157 30.3 91.037 30.3C90.925 30.292 90.813 30.288 90.701 30.288C90.453 30.288 90.209 30.304 89.969 30.336C89.737 30.36 89.529 30.412 89.345 30.492C89.169 30.564 89.025 30.668 88.913 30.804C88.809 30.932 88.757 31.096 88.757 31.296C88.757 31.576 88.857 31.808 89.057 31.992C89.257 32.168 89.513 32.256 89.825 32.256ZM97.0021 27.924C96.7621 27.844 96.5341 27.804 96.3181 27.804C95.9741 27.804 95.7021 27.9 95.5021 28.092C95.3021 28.276 95.1781 28.512 95.1301 28.8V33H94.1701V27H94.8421L95.0221 27.732H95.0701C95.2221 27.46 95.4021 27.252 95.6101 27.108C95.8261 26.956 96.0981 26.88 96.4261 26.88C96.6581 26.88 96.9181 26.92 97.2061 27L97.0021 27.924ZM102.844 33.276C102.844 34.052 102.636 34.624 102.22 34.992C101.812 35.36 101.204 35.544 100.396 35.544C99.9162 35.544 99.5282 35.512 99.2322 35.448C98.9442 35.392 98.6962 35.316 98.4882 35.22L98.7402 34.404C98.9242 34.476 99.1282 34.544 99.3522 34.608C99.5762 34.672 99.8682 34.704 100.228 34.704C100.564 34.704 100.836 34.672 101.044 34.608C101.26 34.552 101.432 34.452 101.56 34.308C101.688 34.172 101.776 33.992 101.824 33.768C101.872 33.552 101.896 33.292 101.896 32.988V32.412H101.848C101.688 32.644 101.484 32.824 101.236 32.952C100.988 33.072 100.664 33.132 100.264 33.132C99.4562 33.132 98.8602 32.88 98.4762 32.376C98.1002 31.872 97.9122 31.088 97.9122 30.024C97.9122 29 98.1562 28.224 98.6442 27.696C99.1322 27.16 99.8522 26.892 100.804 26.892C101.26 26.892 101.648 26.928 101.968 27C102.296 27.072 102.588 27.156 102.844 27.252V33.276ZM100.432 32.292C100.84 32.292 101.16 32.192 101.392 31.992C101.624 31.784 101.788 31.464 101.884 31.032V27.96C101.564 27.808 101.156 27.732 100.66 27.732C100.116 27.732 99.6882 27.916 99.3762 28.284C99.0642 28.652 98.9082 29.228 98.9082 30.012C98.9082 30.348 98.9362 30.656 98.9922 30.936C99.0482 31.216 99.1362 31.456 99.2562 31.656C99.3762 31.856 99.5322 32.012 99.7242 32.124C99.9162 32.236 100.152 32.292 100.432 32.292ZM109.074 32.52C108.834 32.712 108.53 32.864 108.162 32.976C107.802 33.088 107.418 33.144 107.01 33.144C106.554 33.144 106.158 33.072 105.822 32.928C105.486 32.776 105.21 32.564 104.994 32.292C104.778 32.012 104.618 31.68 104.514 31.296C104.41 30.912 104.358 30.48 104.358 30C104.358 28.976 104.586 28.196 105.042 27.66C105.498 27.124 106.15 26.856 106.998 26.856C107.27 26.856 107.542 26.888 107.814 26.952C108.086 27.008 108.33 27.12 108.546 27.288C108.762 27.456 108.938 27.696 109.074 28.008C109.21 28.312 109.278 28.716 109.278 29.22C109.278 29.484 109.254 29.776 109.206 30.096H105.354C105.354 30.448 105.39 30.76 105.462 31.032C105.534 31.304 105.646 31.536 105.798 31.728C105.95 31.912 106.146 32.056 106.386 32.16C106.634 32.256 106.934 32.304 107.286 32.304C107.558 32.304 107.83 32.256 108.102 32.16C108.374 32.064 108.578 31.952 108.714 31.824L109.074 32.52ZM107.01 27.696C106.538 27.696 106.158 27.82 105.87 28.068C105.59 28.316 105.422 28.74 105.366 29.34H108.342C108.342 28.732 108.226 28.308 107.994 28.068C107.762 27.82 107.434 27.696 107.01 27.696Z" fill="#111111"/>
<g filter="url(#filter0_d)">
<mask id="path-4-outside-1" maskUnits="userSpaceOnUse" x="3" y="2" width="19" height="19" fill="black">
<rect fill="white" x="3" y="2" width="19" height="19"/>
<path fill-rule="evenodd" clip-rule="evenodd" d="M11 3C14.866 3 18 6.13401 18 10C18 11.5684 17.4842 13.0163 16.6129 14.1834L20 17.5705L18.5705 19L15.1834 15.6129C14.0163 16.4842 12.5684 17 11 17C7.13401 17 4 13.866 4 10C4 6.13401 7.13401 3 11 3Z"/>
</mask>
<path fill-rule="evenodd" clip-rule="evenodd" d="M11 3C14.866 3 18 6.13401 18 10C18 11.5684 17.4842 13.0163 16.6129 14.1834L20 17.5705L18.5705 19L15.1834 15.6129C14.0163 16.4842 12.5684 17 11 17C7.13401 17 4 13.866 4 10C4 6.13401 7.13401 3 11 3Z" fill="#363B3E"/>
<path d="M16.6129 14.1834L15.8116 13.5852L15.2939 14.2786L15.9058 14.8905L16.6129 14.1834ZM20 17.5705L20.7071 18.2776L21.4142 17.5705L20.7071 16.8633L20 17.5705ZM18.5705 19L17.8633 19.7071L18.5705 20.4142L19.2776 19.7071L18.5705 19ZM15.1834 15.6129L15.8905 14.9058L15.2786 14.2939L14.5852 14.8116L15.1834 15.6129ZM19 10C19 5.58172 15.4183 2 11 2V4C14.3137 4 17 6.68629 17 10H19ZM17.4143 14.7816C18.4101 13.4477 19 11.7913 19 10H17C17 11.3455 16.5583 12.585 15.8116 13.5852L17.4143 14.7816ZM15.9058 14.8905L19.2929 18.2776L20.7071 16.8633L17.3201 13.4763L15.9058 14.8905ZM19.2929 16.8633L17.8633 18.2929L19.2776 19.7071L20.7071 18.2776L19.2929 16.8633ZM19.2776 18.2929L15.8905 14.9058L14.4763 16.32L17.8633 19.7071L19.2776 18.2929ZM11 18C12.7913 18 14.4477 17.4101 15.7816 16.4143L14.5852 14.8116C13.585 15.5583 12.3455 16 11 16V18ZM3 10C3 14.4183 6.58172 18 11 18V16C7.68629 16 5 13.3137 5 10H3ZM11 2C6.58172 2 3 5.58172 3 10H5C5 6.68629 7.68629 4 11 4V2Z" fill="white" fill-opacity="0.8" mask="url(#path-4-outside-1)"/>
</g>
<path fill-rule="evenodd" clip-rule="evenodd" d="M11.0109 15C13.7663 15 16 12.7663 16 10.0108C16 7.25539 13.7663 5.02167 11.0109 5.02167C8.25545 5.02167 6.02173 7.25539 6.02173 10.0108C6.02173 12.7663 8.25545 15 11.0109 15ZM10 6.99999H12V8.99999H14V11H12V13H10V11H8.00005V8.99999H10V6.99999Z" fill="white"/>
<defs>
<filter id="filter0_d" x="0" y="0" width="24.4142" height="24.4142" filterUnits="userSpaceOnUse" color-interpolation-filters="sRGB">
<feFlood flood-opacity="0" result="BackgroundImageFix"/>
<feColorMatrix in="SourceAlpha" type="matrix" values="0 0 0 0 0 0 0 0 0 0 0 0 0 0 0 0 0 0 127 0"/>
<feOffset dy="1"/>
<feGaussianBlur stdDeviation="1.5"/>
<feColorMatrix type="matrix" values="0 0 0 0 0 0 0 0 0 0 0 0 0 0 0 0 0 0 0.25 0"/>
<feBlend mode="normal" in2="BackgroundImageFix" result="effect1_dropShadow"/>
<feBlend mode="normal" in="SourceGraphic" in2="effect1_dropShadow" result="shape"/>
</filter>
</defs>
</svg>
