<?xml version="1.0" encoding="utf-8"?>
<!-- Generator: Adobe Illustrator 21.0.0, SVG Export Plug-In . SVG Version: 6.00 Build 0)  -->
<svg version="1.1" id="Layer_1" xmlns="http://www.w3.org/2000/svg" xmlns:xlink="http://www.w3.org/1999/xlink" x="0px" y="0px"
	 viewBox="0 0 512 512" style="enable-background:new 0 0 512 512;" xml:space="preserve">
<style type="text/css">
	.st0{fill:#EFEFEF;}
</style>
<path class="st0" d="M103,504c-11.3,0-20.4-9.1-20.4-20.4V28.4C82.6,17.1,91.7,8,103,8s20.4,9.1,20.4,20.4v455.2
	C123.4,494.9,114.2,504,103,504z"/>
<path class="st0" d="M103,508c-13.4,0-24.4-10.9-24.4-24.4V28.4C78.6,14.9,89.5,4,103,4s24.4,10.9,24.4,24.4v455.2
	C127.4,497.1,116.4,508,103,508z M103,12c-9,0-16.4,7.4-16.4,16.4v455.2c0,9,7.3,16.4,16.4,16.4s16.4-7.4,16.4-16.4V28.4
	C119.4,19.4,112,12,103,12z"/>
<path class="st0" d="M99.9,272.9c-2.2,0-4-1.8-4-4v-25.9c0-2.2,1.8-4,4-4s4,1.8,4,4v25.9C103.9,271.1,102.1,272.9,99.9,272.9z"/>
<ellipse transform="matrix(0.7071 -0.7071 0.7071 0.7071 -11.3658 89.9263)" class="st0" cx="102.9" cy="58.7" rx="50.7" ry="50.7"/>
<path class="st0" d="M102.9,8c-2.2,0-4.3,0.2-6.5,0.4c24.9,3.2,44.2,24.5,44.2,50.3c0,25.8-19.3,47.1-44.2,50.3
	c2.1,0.3,4.3,0.4,6.5,0.4c28,0,50.7-22.7,50.7-50.7C153.6,30.7,130.9,8,102.9,8z"/>
<path class="st0" d="M409.2,504c-11.3,0-20.4-9.1-20.4-20.4V28.4C388.8,17.1,398,8,409.2,8s20.4,9.1,20.4,20.4v455.2
	C429.6,494.9,420.5,504,409.2,504z"/>
<path class="st0" d="M409.2,508c-13.4,0-24.4-10.9-24.4-24.4V28.4c0-13.4,10.9-24.4,24.4-24.4s24.4,10.9,24.4,24.4v455.2
	C433.6,497.1,422.7,508,409.2,508z M409.2,12c-9,0-16.4,7.4-16.4,16.4v455.2c0,9,7.4,16.4,16.4,16.4s16.4-7.4,16.4-16.4V28.4
	C425.6,19.4,418.3,12,409.2,12z"/>
<ellipse transform="matrix(0.7071 -0.7071 0.7071 0.7071 -200.7437 421.9959)" class="st0" cx="409" cy="453.3" rx="50.7" ry="50.7"/>
<path class="st0" d="M409.1,402.6c-2.2,0-4.4,0.2-6.5,0.4c24.9,3.2,44.2,24.5,44.2,50.3s-19.3,47.1-44.2,50.3
	c2.1,0.3,4.3,0.4,6.5,0.4c28,0,50.7-22.7,50.7-50.7C459.8,425.3,437.1,402.6,409.1,402.6L409.1,402.6z"/>
<path class="st0" d="M409.1,504c2.2,0,4.4-0.2,6.5-0.4c-24.9-3.2-44.2-24.5-44.2-50.3c0-25.8,19.3-47.1,44.2-50.3
	c-2.1-0.3-4.3-0.4-6.5-0.4c-28,0-50.7,22.7-50.7,50.7C358.4,481.3,381.1,504,409.1,504L409.1,504z"/>
<path class="st0" d="M256.1,504c-11.3,0-20.4-9.1-20.4-20.4V28.4c0-11.3,9.1-20.4,20.4-20.4s20.4,9.1,20.4,20.4v455.2
	C276.5,494.9,267.4,504,256.1,504z"/>
<path class="st0" d="M256.1,508c-13.4,0-24.4-10.9-24.4-24.4V28.4c0-13.4,10.9-24.4,24.4-24.4c13.4,0,24.4,10.9,24.4,24.4v455.2
	C280.5,497.1,269.5,508,256.1,508z M256.1,12c-9,0-16.4,7.4-16.4,16.4v455.2c0,9,7.4,16.4,16.4,16.4s16.4-7.4,16.4-16.4V28.4
	C272.5,19.4,265.1,12,256.1,12z"/>
<circle class="st0" cx="256" cy="252.8" r="50.7"/>
<path class="st0" d="M409.1,508c-30.1,0-54.7-24.5-54.7-54.7s24.5-54.7,54.7-54.7s54.7,24.5,54.7,54.7S439.3,508,409.1,508z
	 M409.1,406.6c-25.7,0-46.7,20.9-46.7,46.7s20.9,46.7,46.7,46.7s46.7-20.9,46.7-46.7S434.9,406.6,409.1,406.6z"/>
<path class="st0" d="M256,202.1c-2.2,0-4.4,0.2-6.5,0.4c24.9,3.2,44.2,24.5,44.2,50.3s-19.3,47.1-44.2,50.3c2.1,0.3,4.3,0.4,6.5,0.4
	c28,0,50.7-22.7,50.7-50.7S284,202.1,256,202.1L256,202.1z"/>
<path class="st0" d="M256,303.4c2.2,0,4.4-0.2,6.5-0.4c-24.9-3.2-44.2-24.5-44.2-50.3s19.3-47.1,44.2-50.3c-2.1-0.3-4.3-0.4-6.5-0.4
	c-28,0-50.7,22.7-50.7,50.7S228,303.4,256,303.4L256,303.4z"/>
<path class="st0" d="M102.9,109.4c2.2,0,4.3-0.2,6.5-0.4c-24.9-3.2-44.2-24.5-44.2-50.3c0-25.8,19.3-47.1,44.2-50.3
	c-2.1-0.3-4.3-0.4-6.5-0.4c-28,0-50.7,22.7-50.7,50.7C52.2,86.7,74.9,109.4,102.9,109.4z"/>
<g>
	<path class="st0" d="M256,307.4c-30.1,0-54.7-24.5-54.7-54.7s24.5-54.7,54.7-54.7s54.7,24.5,54.7,54.7S286.2,307.4,256,307.4z
		 M256,206.1c-25.7,0-46.7,20.9-46.7,46.7s20.9,46.7,46.7,46.7s46.7-20.9,46.7-46.7S281.7,206.1,256,206.1z"/>
	<path class="st0" d="M102.9,113.4c-30.2,0-54.7-24.5-54.7-54.7S72.7,4,102.9,4c30.1,0,54.7,24.5,54.7,54.7
		C157.6,88.8,133,113.4,102.9,113.4z M102.9,12c-25.7,0-46.7,20.9-46.7,46.7s20.9,46.7,46.7,46.7s46.7-20.9,46.7-46.7
		S128.6,12,102.9,12z"/>
</g>
</svg>
